<?xml version="1.0" encoding="UTF-8" standalone="no"?>
<svg width="148px" height="66px" viewBox="0 0 148 66" version="1.1" xmlns="http://www.w3.org/2000/svg" xmlns:xlink="http://www.w3.org/1999/xlink">
    <!-- Generator: Sketch 40.1 (33804) - http://www.bohemiancoding.com/sketch -->
    <title>Group 4</title>
    <desc>Created with Sketch.</desc>
    <defs>
        <polygon id="path-1" points="9 0 18 15 0 15"></polygon>
    </defs>
    <g id="Page-1" stroke="none" stroke-width="1" fill="none" fill-rule="evenodd">
        <g id="Group-4" transform="translate(1.000000, 0.000000)">
            <g id="Group">
                <g id="Cell-Elements/Delete-Reveal">
                    <rect id="Cell-Frame" x="0" y="0" width="54" height="44"></rect>
                    <g id="Float" style="mix-blend-mode: darken;" stroke-width="1" fill-rule="evenodd" transform="translate(12.000000, 12.000000)">
                        <ellipse id="Circle" fill="#FE3824" cx="11" cy="11" rx="11" ry="11"></ellipse>
                        <rect id="Dash" fill="#FFFFFF" x="5.5" y="10.5" width="11" height="1"></rect>
                    </g>
                </g>
                <g id="Group-3" transform="translate(38.000000, 0.000000)" stroke="#FFBB4C">
                    <g id="Group-2">
                        <polygon id="Triangle" fill="#FFBB4C" points="9 0 18 15 0 15"></polygon>
                        <path d="M9,14.5 L9,27.5" id="Line" stroke-width="4" stroke-linecap="square"></path>
                    </g>
                </g>
                <g id="Group-Copy-2" transform="translate(9.000000, 52.000000) scale(1, -1) translate(-9.000000, -52.000000) translate(0.000000, 38.000000)" stroke="#FFBB4C">
                    <polygon id="Triangle" fill="#FFBB4C" points="9 0 18 15 0 15"></polygon>
                    <path d="M9,14.5 L9,27.5" id="Line" stroke-width="4" stroke-linecap="square"></path>
                </g>
            </g>
            <g id="Group" transform="translate(90.000000, 0.000000)">
                <g id="Cell-Elements/Delete-Reveal">
                    <rect id="Cell-Frame" x="0" y="0" width="28" height="28"></rect>
                    <g id="Float" style="mix-blend-mode: darken;" transform="translate(2.250000, 3.272727)">
                        <ellipse id="Circle" fill="#CB2D1D" cx="11" cy="11" rx="11" ry="11"></ellipse>
                        <rect id="Dash" fill="#FFFFFF" x="5.5" y="10.5" width="11" height="1"></rect>
                    </g>
                </g>
                <g id="Group-3" transform="translate(38.000000, 0.000000)" stroke="#CC963E">
                    <g id="Group-2">
                        <polygon id="Triangle" fill="#CC963E" points="9 0 18 15 0 15"></polygon>
                        <path d="M9,14.5 L9,27.5" id="Line" stroke-width="4" stroke-linecap="square"></path>
                    </g>
                </g>
                <g id="Group-Copy-2" transform="translate(9.000000, 52.000000) scale(1, -1) translate(-9.000000, -52.000000) translate(0.000000, 38.000000)">
                    <g id="Triangle" style="mix-blend-mode: hue;">
                        <use fill="#CC963E" fill-rule="evenodd" style="mix-blend-mode: darken;" xlink:href="#path-1"></use>
                        <use stroke="#CC963E" stroke-width="1" xlink:href="#path-1"></use>
                    </g>
                    <path d="M9,14.5 L9,27.5" id="Line" stroke="#CC963E" stroke-width="4" stroke-linecap="square"></path>
                </g>
            </g>
        </g>
    </g>
</svg>